<svg xmlns="http://www.w3.org/2000/svg" fill="none" viewBox="0 0 1024 1024">
    <path d="M46.4954 651C58.8265 651.001 70.6529 655.899 79.3723 664.619C88.0918 673.34 92.9896 685.167 92.9897 697.5V883.5C92.9897 895.833 97.8886 907.66 106.608 916.381C115.328 925.101 127.154 930 139.485 930H325.465C337.797 930.001 349.623 934.899 358.342 943.619C367.062 952.34 371.96 964.167 371.96 976.5C371.96 988.832 367.062 1000.66 358.342 1009.38C349.623 1018.1 337.797 1023 325.465 1023H139.485C102.491 1023 67.0126 1008.3 40.8541 982.142C14.6956 955.98 0 920.498 0 883.5V697.5C0.000105688 685.167 4.89898 673.34 13.6184 664.619C22.3379 655.899 34.1643 651 46.4954 651Z"/>
    <path d="M977.997 651.499C990.328 651.499 1002.15 656.399 1010.87 665.119C1019.59 673.84 1024.49 685.667 1024.49 698V884C1024.49 920.998 1009.8 956.48 983.638 982.642C957.48 1008.8 922.001 1023.5 885.007 1023.5H699.027C686.695 1023.5 674.869 1018.6 666.15 1009.88C657.43 1001.16 652.532 989.332 652.532 977C652.532 964.667 657.43 952.84 666.15 944.119C674.869 935.399 686.695 930.499 699.027 930.499H885.007C897.338 930.499 909.165 925.601 917.884 916.881C926.603 908.16 931.502 896.333 931.502 884V698C931.502 685.667 936.4 673.84 945.12 665.119C953.839 656.399 965.665 651.499 977.997 651.499Z"/>
    <path d="M465.397 197.632V315.337C465.336 315.337 465.275 315.336 465.215 315.336C399.473 315.336 347.524 367.291 347.524 433.039C347.524 498.787 399.473 550.742 465.215 550.742C465.275 550.742 465.336 550.74 465.397 550.74V668.446C465.336 668.446 465.275 668.445 465.215 668.445C367.063 668.445 288.679 746.837 288.679 845H170.988C170.988 743.849 223.168 653.503 301.551 600.398C257.877 557.639 229.834 498.557 229.834 433.039C229.834 303.612 335.801 197.632 465.215 197.632C465.275 197.632 465.336 197.632 465.397 197.632Z"/>
    <path d="M784.506 556.014C796.837 556.014 808.663 560.913 817.383 569.634C826.102 578.354 831 590.182 831 602.514V788.513C831 800.846 826.102 812.673 817.383 821.394C808.663 830.114 796.837 835.014 784.506 835.014H738.01C725.679 835.014 713.853 830.114 705.133 821.394C696.414 812.673 691.515 800.846 691.515 788.513C691.515 776.181 696.414 764.353 705.133 755.633C713.853 746.913 725.679 742.014 738.01 742.014V602.514C738.01 590.182 742.909 578.354 751.629 569.634C760.348 560.913 772.174 556.014 784.506 556.014Z"/>
    <path d="M598.525 742.014C610.856 742.014 622.683 746.912 631.402 755.633C640.122 764.353 645.021 776.181 645.021 788.513C645.021 797.71 642.293 806.701 637.184 814.348C632.075 821.995 624.814 827.954 616.318 831.474C607.823 834.993 598.473 835.915 589.454 834.121C580.435 832.326 572.151 827.897 565.648 821.394C559.146 814.891 554.718 806.605 552.924 797.585C551.13 788.565 552.05 779.216 555.569 770.719C559.088 762.222 565.048 754.96 572.694 749.85C580.34 744.741 589.33 742.014 598.525 742.014Z"/>
    <path d="M645.021 556.014C657.352 556.014 669.177 560.913 677.897 569.634C686.616 578.354 691.515 590.182 691.515 602.514C691.515 614.847 686.616 626.674 677.897 635.395C669.177 644.115 657.351 649.013 645.021 649.013C645.021 661.346 640.122 673.173 631.402 681.894C622.683 690.614 610.856 695.514 598.525 695.514C586.194 695.514 574.368 690.614 565.648 681.894C556.929 673.173 552.03 661.346 552.03 649.013V602.514C552.03 590.182 556.929 578.354 565.648 569.634C574.368 560.913 586.194 556.014 598.525 556.014H645.021Z"/>
    <path fill-rule="evenodd" clip-rule="evenodd" d="M784.506 184.014C796.837 184.014 808.663 188.913 817.383 197.633C826.102 206.353 831 218.181 831 230.513V416.514C831 428.846 826.102 440.674 817.383 449.394C808.663 458.115 796.837 463.014 784.506 463.014H598.525C586.194 463.014 574.368 458.115 565.648 449.394C556.929 440.674 552.03 428.846 552.03 416.514V230.513C552.03 218.181 556.929 206.353 565.648 197.633C574.368 188.913 586.194 184.014 598.525 184.014H784.506ZM645.021 370.013H738.01V277.014H645.021V370.013Z"/>
    <path d="M325.465 0C337.797 8.80833e-05 349.623 4.89949 358.342 13.6198C367.062 22.3402 371.96 34.168 371.96 46.5003C371.96 58.8325 367.062 70.6595 358.342 79.3798C349.623 88.1001 337.797 92.9995 325.465 92.9996H139.485C127.154 92.9996 115.328 97.899 106.608 106.619C97.8886 115.34 92.9897 127.167 92.9897 139.5V325.5C92.9897 337.833 88.0917 349.66 79.3723 358.381C70.6529 367.101 58.8265 372 46.4954 372.001C34.1642 372.001 22.3379 367.101 13.6184 358.381C4.89889 349.66 0 337.833 0 325.5V139.5C0 102.502 14.6956 67.0198 40.8541 40.8585C67.0126 14.6972 102.491 0 139.485 0H325.465Z"/>
    <path d="M885.007 0.5C922.001 0.50007 957.48 15.1972 983.638 41.3585C1009.8 67.5198 1024.49 103.002 1024.49 140V326C1024.49 338.333 1019.59 350.16 1010.87 358.881C1002.15 367.601 990.328 372.5 977.997 372.5C965.666 372.5 953.839 367.601 945.12 358.881C936.4 350.16 931.503 338.333 931.502 326V140C931.502 127.667 926.603 115.84 917.884 107.119C909.165 98.3991 897.338 93.4997 885.007 93.4996H699.027C686.695 93.4996 674.869 88.6012 666.15 79.8808C657.43 71.1605 652.532 59.3328 652.532 47.0003C652.532 34.6679 657.43 22.8403 666.15 14.1198C674.869 5.39941 686.695 0.5 699.027 0.5H885.007Z"/>
    <style>
        path { fill: #000; }
        @media (prefers-color-scheme: dark) {
            path { fill: #FFF; }
        }
    </style>
</svg>
